<?xml version="1.0" encoding="utf-8"?>
<!-- Generator: Adobe Illustrator 25.4.1, SVG Export Plug-In . SVG Version: 6.00 Build 0)  -->
<svg version="1.1" id="Layer_1" xmlns="http://www.w3.org/2000/svg" xmlns:xlink="http://www.w3.org/1999/xlink" x="0px" y="0px"
	 viewBox="0 0 1283 166" style="enable-background:new 0 0 1283 166;" xml:space="preserve">
<style type="text/css">
	.st0{fill:#F8F8F8;}
	.st1{fill:#707070;}
	.st2{fill:#292929;}
	.st3{font-family:'Merriweather-Bold';}
	.st4{font-size:22px;}
	.st5{font-family:'Poppins-Regular';}
	.st6{font-size:14px;}
	.st7{fill:#EF574A;}
</style>
<rect id="Rectangle_20" y="0" class="st0" width="1283" height="166"/>
<path id="Line_7" class="st1" d="M1149.6,40H102.5v-1h1047.1V40z"/>
<text transform="matrix(1 0 0 1 72 82)" class="st2 st3 st4">1985</text>
<text transform="matrix(1 0 0 1 56.859 113)" class="st2 st5 st6">Opened our </text>
<text transform="matrix(1 0 0 1 64.265 133)" class="st2 st5 st6">first store.</text>
<circle id="Ellipse_4" class="st7" cx="99" cy="39" r="5"/>
<text transform="matrix(1 0 0 1 1122.111 82)" class="st2 st3 st4">2022</text>
<text transform="matrix(1 0 0 1 1076.658 113)" class="st2 st5 st6">New beginnings with </text>
<text transform="matrix(1 0 0 1 1093.444 133)" class="st2 st5 st6">Nick and Emma.</text>
<circle id="Ellipse_4-2" class="st7" cx="1149.1" cy="39" r="5"/>
<text transform="matrix(1 0 0 1 284.569 82)" class="st2 st3 st4">1990</text>
<text transform="matrix(1 0 0 1 247.37 113)" class="st2 st5 st6">Began to craft our </text>
<text transform="matrix(1 0 0 1 236.835 133)" class="st2 st5 st6">own coffee products.</text>
<circle id="Ellipse_4-3" class="st7" cx="311.6" cy="39" r="5"/>
<text transform="matrix(1 0 0 1 493.053 82)" class="st2 st3 st4">1995</text>
<text transform="matrix(1 0 0 1 476.156 113)" class="st2 st5 st6">Created our </text>
<text transform="matrix(1 0 0 1 460.784 133)" class="st2 st5 st6">signature blend.</text>
<circle id="Ellipse_4-4" class="st7" cx="520.1" cy="39" r="5"/>
<text transform="matrix(1 0 0 1 702.789 82)" class="st2 st3 st4">2008</text>
<text transform="matrix(1 0 0 1 650.778 113)" class="st2 st5 st6">Moved to a larger shop </text>
<text transform="matrix(1 0 0 1 665.982 133)" class="st2 st5 st6">on Britannia Street.</text>
<circle id="Ellipse_4-5" class="st7" cx="729.8" cy="39" r="5"/>
<text transform="matrix(1 0 0 1 911.328 82)" class="st2 st3 st4">2015</text>
<text transform="matrix(1 0 0 1 872.693 113)" class="st2 st5 st6">Won our first Great </text>
<text transform="matrix(1 0 0 1 894.456 133)" class="st2 st5 st6">Taste award.</text>
<circle id="Ellipse_4-6" class="st7" cx="938.3" cy="39" r="5"/>
</svg>
